Coordinates
version=1
nRows=6
nColumns=63
inDegrees=yes

Units are S.I. units (second, meters, Newtons, ...)
If the header above contains a line with 'inDegrees', this indicates whether rotational values are in degrees (yes) or radians (no).

endheader
time	pelvis_tilt	pelvis_list	pelvis_rotation	pelvis_tx	pelvis_ty	pelvis_tz	hip_flexion_r	hip_adduction_r	hip_rotation_r	knee_angle_r	knee_angle_r_beta	ankle_angle_r	subtalar_angle_r	mtp_angle_r	hip_flexion_l	hip_adduction_l	hip_rotation_l	knee_angle_l	knee_angle_l_beta	ankle_angle_l	subtalar_angle_l	mtp_angle_l	L5_S1_Flex_Ext	L5_S1_Lat_Bending	L5_S1_axial_rotation	L4_L5_Flex_Ext	L4_L5_Lat_Bending	L4_L5_axial_rotation	L3_L4_Flex_Ext	L3_L4_Lat_Bending	L3_L4_axial_rotation	L2_L3_Flex_Ext	L2_L3_Lat_Bending	L2_L3_axial_rotation	L1_L2_Flex_Ext	L1_L2_Lat_Bending	L1_L2_axial_rotation	L1_T12_Flex_Ext	L1_T12_Lat_Bending	L1_T12_axial_rotation	Abs_r3	Abs_r2	Abs_r1	Abs_t1	Abs_t2	neck_flexion	neck_bending	neck_rotation	arm_flex_r	arm_add_r	arm_rot_r	elbow_flex_r	pro_sup_r	wrist_flex_r	wrist_dev_r	arm_flex_l	arm_add_l	arm_rot_l	elbow_flex_l	pro_sup_l	wrist_flex_l	wrist_dev_l
      2.60000000	      3.53910265	     -1.79923962	      0.74937008	     -0.61375844	      0.96193579	      0.34996107	      7.57383708	      4.90544856	    -12.32275596	     18.34838010	      0.32023965	     11.24418686	      0.35456791	      0.00000000	     11.27519156	     -6.90898150	     -4.12542278	     72.47703568	      1.26496290	      4.47571519	     -5.41331552	      0.00000000	      0.00476516	      0.19516598	     -0.16357455	      0.00884938	      0.25957075	     -0.17379796	      0.00782868	      0.47452655	     -0.17379796	      0.00544610	      0.47452655	     -0.14312773	      0.00442493	      0.39798246	     -0.13290432	      0.00272281	      0.30231210	     -0.12268091	      0.03403707	      2.20775655	     -0.90975256	      0.00000000	      0.00000000	      0.00000000	      0.00000000	      0.00000000	     11.25529314	    -11.30252009	    139.97308365	      0.94293445	     21.19167360	      0.00000000	      4.99999978	     -7.40699034	    -12.27824751	     26.27651697	     22.26994271	     57.15625578	      0.00000000	      4.99999978
      2.63333333	      3.11171657	     -1.55424755	     -1.02333372	     -0.57839643	      0.96791319	      0.35351651	      4.42088121	      4.90941560	    -11.62913447	     16.12605854	      0.28145282	     11.51332907	      2.00504070	      0.00000000	     18.17622587	     -6.68971346	     -4.68513783	     73.74478624	      1.28708933	      8.36158625	     -6.90273534	      0.00000000	      0.00069404	      0.16932199	      0.17376201	      0.00128890	      0.22519825	      0.18462214	      0.00114024	      0.41168949	      0.18462214	      0.00079322	      0.41168949	      0.15204176	      0.00064448	      0.34528140	      0.14118164	      0.00039657	      0.26227976	      0.13032151	      0.00495745	      1.91540422	      0.96641219	      0.00000000	      0.00000000	      0.00000000	      0.00000000	      0.00000000	     15.41856688	    -11.57041074	    140.03357196	      1.06979718	     20.82786908	      0.00000000	      4.99999979	     -9.30218078	    -12.12317812	     26.54186439	     21.65487617	     57.21948420	      0.00000000	      4.99999979
      2.66666667	      2.57174763	     -1.23151808	     -3.21599147	     -0.54363250	      0.97210928	      0.35746312	      1.56811295	      4.46422332	    -12.55335820	     14.21839982	      0.24815789	     12.18168711	      6.42052361	      0.00000000	     24.26183671	     -6.40547873	     -5.58550975	     71.12682963	      1.24139736	     10.58920181	     -9.79797583	      0.00000000	     -0.00233089	      0.13174496	      0.57548277	     -0.00432870	      0.17522079	      0.61145044	     -0.00382943	      0.32032468	      0.61145044	     -0.00266398	      0.32032468	      0.50354742	     -0.00216447	      0.26865431	      0.46757975	     -0.00133187	      0.20407294	      0.43161208	     -0.01664935	      1.49032528	      3.20066252	      0.00000000	      0.00000000	      0.00000000	      0.00000000	      0.00000000	     19.58307771	    -11.60681279	    148.92840316	      0.96987645	     13.53556964	      0.00000000	      4.99999990	    -11.26903509	    -12.13912649	     25.81950690	     21.81715951	     57.69704867	      0.00000000	      4.99999990
      2.70000000	      2.03988865	     -0.88072945	     -5.99701164	     -0.50833922	      0.97392505	      0.36272157	     -1.17770978	      4.24572667	    -10.55879376	     12.35252590	      0.21559225	     12.61699017	      7.46354826	      0.00000000	     28.67493924	     -6.61567397	     -7.11984995	     64.91829136	      1.13303793	     10.52848045	    -13.47563261	      0.00000000	     -0.00446332	      0.08807477	      1.05791811	     -0.00828883	      0.11713945	      1.12403799	     -0.00733278	      0.21414500	      1.12403799	     -0.00510112	      0.21414500	      0.92567834	     -0.00414464	      0.17960207	      0.85955846	     -0.00255034	      0.13642782	      0.79343858	     -0.03188102	      0.99631943	      5.88382314	      0.00000000	      0.00000000	      0.00000000	      0.00000000	      0.00000000	     23.42427292	    -11.33158046	    154.92580971	      0.83751129	     10.29150145	      0.00000000	      4.99999995	    -13.75138878	    -12.02638566	     21.81387355	     22.94540613	     56.96272406	      0.00000000	      4.99999995
      2.73333333	      1.57948702	     -0.51078417	     -8.96585316	     -0.47191411	      0.97298603	      0.36839204	     -3.91364800	      3.89905173	     -7.20149198	     10.69868763	      0.18672732	     13.35191222	      7.10334557	      0.00000000	     31.15196780	     -7.35348587	     -9.30069712	     55.94523244	      0.97642851	      8.91528803	    -16.41907730	      0.00000000	     -0.00544835	      0.04017058	      1.53462582	     -0.01011814	      0.05342688	      1.63053993	     -0.00895110	      0.09767076	      1.63053993	     -0.00622692	      0.09767076	      1.34279759	     -0.00505934	      0.08191585	      1.24688347	     -0.00311319	      0.06222423	      1.15096936	     -0.03891705	      0.45441767	      8.53512840	      0.00000000	      0.00000000	      0.00000000	      0.00000000	      0.00000000	     26.84301132	    -10.74090885	    159.45377436	      0.62564267	      7.33346643	      0.00000000	      4.99999998	    -16.52132669	    -11.60405238	     15.52914179	     24.52718614	     55.94201888	      0.00000000	      4.99999998
      2.76666667	      1.28634917	     -0.18553526	    -11.51585741	     -0.43374488	      0.96939419	      0.37325551	     -6.84937423	      3.24194201	     -4.90668978	      9.17085789	      0.16006167	     14.61578316	      8.10125732	      0.00000000	     31.76830712	     -8.08910856	    -11.78485660	     45.04292558	      0.78614736	      6.69462962	    -17.63031585	      0.00000000	     -0.00496016	     -0.00053250	      1.92238098	     -0.00921152	     -0.00070822	      2.04252979	     -0.00814905	     -0.00129471	      2.04252979	     -0.00566897	     -0.00129471	      1.68208335	     -0.00460601	     -0.00108587	      1.56193454	     -0.00283424	     -0.00082484	      1.44178573	     -0.03542994	     -0.00602371	     10.69170627	      0.00000000	      0.00000000	      0.00000000	      0.00000000	      0.00000000	     29.68562574	     -9.99142101	    159.83907584	      0.48179734	      7.16459216	      0.00000000	      4.99999999	    -18.52171450	    -11.83044589	     14.63752325	     25.33518284	     55.76106081	      0.00000000	      4.99999999
